<?xml version="1.0" ?><svg id="Layer_3" style="enable-background:new 0 0 32 32;" version="1.1" viewBox="0 0 32 32" xml:space="preserve" xmlns="http://www.w3.org/2000/svg" xmlns:xlink="http://www.w3.org/1999/xlink"><g><path d="M30,4.1123H2c-0.55225,0-1,0.44775-1,1s0.44775,1,1,1h28c0.55225,0,1-0.44775,1-1S30.55225,4.1123,30,4.1123z"/><path d="M30,15H2c-0.55225,0-1,0.44775-1,1s0.44775,1,1,1h28c0.55225,0,1-0.44775,1-1S30.55225,15,30,15z"/><path d="M30,25.8877H2c-0.55225,0-1,0.44727-1,1s0.44775,1,1,1h28c0.55225,0,1-0.44727,1-1S30.55225,25.8877,30,25.8877z"/></g></svg>