<svg width="14" height="15" viewBox="0 0 14 15" fill="none" xmlns="http://www.w3.org/2000/svg">
<path fill-rule="evenodd" clip-rule="evenodd" d="M3.10372 3.14868C2.66601 3.14868 2.31117 3.50352 2.31117 3.94123V9.73378C2.31117 10.1715 2.66601 10.5263 3.10372 10.5263H8.8963C9.33399 10.5263 9.68882 10.1715 9.68882 9.73378V8.28565C9.68882 7.92358 9.98236 7.63006 10.3444 7.63006C10.7065 7.63006 11 7.92358 11 8.28565V9.73378C11 10.8957 10.0581 11.8375 8.8963 11.8375H3.10372C1.94187 11.8375 1 10.8957 1 9.73378V3.94123C1 2.77937 1.94187 1.83749 3.10372 1.83749H4.55186C4.91393 1.83749 5.20745 2.13101 5.20745 2.49309C5.20745 2.85516 4.91393 3.14868 4.55186 3.14868H3.10372ZM5.36073 7.47674C5.10471 7.22072 5.10471 6.80562 5.36073 6.5496L8.76166 3.14868H7.44813C7.08605 3.14868 6.79254 2.85516 6.79254 2.49309C6.79254 2.13101 7.08605 1.83749 7.44813 1.83749H9.52493C10.3396 1.83749 11 2.49791 11 3.31258V5.38937C11 5.75144 10.7065 6.04496 10.3444 6.04496C9.98236 6.04496 9.68882 5.75144 9.68882 5.38937V4.0758L6.28788 7.47674C6.03185 7.73277 5.61676 7.73277 5.36073 7.47674Z" fill="#AC7F7F"/>
</svg>
