<svg width="34" height="26" viewBox="0 0 34 26" fill="none" xmlns="http://www.w3.org/2000/svg">
<path d="M16.7826 5.20012L19.9997 15.5655L21.8952 13.7721L17.8936 0.882076C17.7409 0.385689 17.288 0.0547638 16.7773 0.0547638C16.2666 0.0547638 15.8137 0.396364 15.661 0.887414L11.7015 13.7561L13.597 15.5495L16.7826 5.20012Z" fill="#AC7F7F"/>
<path d="M33.5317 7.20702C33.5317 7.20702 33.5317 7.20168 33.5317 7.19634C33.5369 7.18033 33.5422 7.16966 33.5475 7.15364C33.5475 7.14297 33.5475 7.13763 33.5475 7.13229C33.5475 7.12162 33.5527 7.11094 33.558 7.10027C33.558 7.08959 33.5633 7.07892 33.5685 7.06824C33.5685 7.06824 33.5685 7.05757 33.5738 7.05223C33.5738 7.03622 33.5738 7.02554 33.5791 7.00953V7.00419C33.5791 6.98284 33.5843 6.96683 33.5843 6.95082C33.5843 6.95082 33.5843 6.95082 33.5843 6.94548C33.5843 6.92947 33.5843 6.91346 33.5843 6.89744C33.5843 6.89744 33.5843 6.86008 33.5843 6.83873V6.77468C33.5843 6.77468 33.5843 6.74266 33.5843 6.73198V6.71597C33.5843 6.71597 33.5843 6.68928 33.5843 6.67861C33.5843 6.67327 33.5843 6.66259 33.5843 6.65726C33.5843 6.64658 33.5843 6.63591 33.5843 6.62523C33.5843 6.61456 33.5843 6.60388 33.5791 6.59321C33.5791 6.58787 33.5791 6.57719 33.5791 6.57186C33.5791 6.56118 33.5738 6.55051 33.5738 6.53449C33.5738 6.53449 33.5738 6.52916 33.5738 6.52382C33.5738 6.50781 33.5633 6.49179 33.5633 6.48112C33.5633 6.48112 33.5633 6.47578 33.5633 6.47044C33.558 6.45443 33.5527 6.43842 33.5475 6.42241C33.5475 6.42241 33.5369 6.38504 33.5317 6.36903C33.5317 6.35302 33.5212 6.33701 33.5106 6.32099C33.5054 6.30498 33.4948 6.28897 33.4896 6.27296C33.4896 6.27296 33.4896 6.26762 33.4896 6.26228C33.4843 6.24627 33.4738 6.23559 33.4685 6.22492C33.4685 6.21958 33.4632 6.21424 33.458 6.20891C33.4527 6.19823 33.4422 6.18756 33.4422 6.17688C33.4369 6.17154 33.4264 6.16087 33.4211 6.15019C33.4211 6.14486 33.4158 6.13418 33.4106 6.12884C33.4053 6.11817 33.3948 6.10749 33.3895 6.09148C33.3895 6.09148 33.3843 6.08614 33.3843 6.08081C33.3263 6.00608 33.2579 5.93669 33.1789 5.87264C33.1789 5.87264 33.1789 5.87264 33.1736 5.87264C33.1631 5.86731 33.1578 5.86197 33.1526 5.85129C33.1473 5.85129 33.1368 5.84062 33.1262 5.83528C33.1262 5.83528 33.1263 5.83528 33.121 5.82994C33.042 5.77657 32.9578 5.72853 32.8682 5.69651C32.8682 5.69651 32.863 5.69651 32.8577 5.69651C32.8419 5.69117 32.8314 5.68583 32.8209 5.68049C32.8103 5.68049 32.8051 5.67516 32.7945 5.66982C32.784 5.66982 32.7735 5.66982 32.7682 5.66448C32.7577 5.66448 32.7471 5.65914 32.7313 5.65381C32.7261 5.65381 32.7208 5.65381 32.7155 5.65381C32.6998 5.65381 32.684 5.64847 32.6682 5.64313C32.6682 5.64313 32.6682 5.64313 32.6629 5.64313C32.6471 5.64313 32.626 5.63779 32.6102 5.63779C32.5576 5.63246 32.4997 5.62712 32.447 5.62712C32.447 5.62712 32.4154 5.62712 32.3996 5.62712H32.3891C32.3891 5.62712 32.3575 5.62712 32.347 5.62712C32.3417 5.62712 32.3364 5.62712 32.3312 5.62712C32.3206 5.62712 32.3049 5.62712 32.2943 5.62712C32.2891 5.62712 32.2838 5.62712 32.2733 5.62712C32.2627 5.62712 32.2575 5.62712 32.2469 5.62712C32.2364 5.62712 32.2259 5.62712 32.2153 5.63779C32.2101 5.63779 32.1995 5.63779 32.1943 5.63779C32.1837 5.63779 32.1679 5.64847 32.1574 5.64847C32.1522 5.64847 32.1469 5.64847 32.1416 5.64847C32.1311 5.65381 32.1153 5.65381 32.0995 5.66448C32.0995 5.66448 32.0942 5.66448 32.089 5.66448C32.0732 5.66982 32.0626 5.67516 32.0468 5.68049C32.0468 5.68049 32.0468 5.68049 32.0363 5.68049C32.0258 5.68049 32.01 5.69117 31.9942 5.69651C31.9942 5.69651 31.9889 5.69651 31.9837 5.69651C31.9679 5.70184 31.9573 5.70718 31.9415 5.71252C31.9415 5.71252 31.931 5.71786 31.9257 5.72319C31.9152 5.72319 31.9047 5.73387 31.8942 5.74454C31.8836 5.74454 31.8784 5.74988 31.8731 5.75522C31.8626 5.76056 31.8573 5.76589 31.8468 5.77123C31.8362 5.78191 31.831 5.78191 31.8204 5.78724C31.8152 5.79258 31.8099 5.79792 31.8046 5.79792C31.7888 5.80859 31.7783 5.81393 31.7678 5.82461C31.7678 5.82461 31.7678 5.82461 31.7625 5.82994C31.7257 5.85663 31.6941 5.88866 31.6625 5.92068L26.6814 10.623L23.6644 13.4732L16.8404 19.9156L9.40574 12.8968L7.36277 10.97L1.96576 5.92068C1.55507 5.53104 0.923221 5.49368 0.470398 5.83528C0.0175763 6.17688 -0.129854 6.80137 0.122884 7.31377L8.65806 24.7354C8.86867 25.173 9.32149 25.4292 9.79538 25.3919C10.2693 25.3545 10.6747 25.0236 10.8169 24.5646L12.1753 20.1505L10.2798 18.3624L9.45313 21.0418L5.07234 12.0962L5.73051 12.7207L8.21576 15.0692L16.0033 22.4189C16.2297 22.6324 16.514 22.7391 16.7983 22.7391C17.0827 22.7391 17.3722 22.6324 17.5934 22.4189L25.5546 14.9037L28.2295 12.3737L28.5243 12.0962L24.1383 21.0525L23.3063 18.3731L21.4108 20.1611L22.7798 24.5699C22.922 25.0289 23.3274 25.3545 23.8065 25.3972C23.8381 25.3972 23.8645 25.3972 23.896 25.3972C24.3331 25.3972 24.7438 25.141 24.9439 24.7407L33.479 7.32978C33.5001 7.28708 33.5159 7.24438 33.5369 7.20168L33.5317 7.20702Z" fill="#AC7F7F"/>
</svg>
